<svg id="Calque_1" data-name="Calque 1" xmlns="http://www.w3.org/2000/svg" xmlns:xlink="http://www.w3.org/1999/xlink" viewBox="0 0 1500 600"><defs><pattern id="flècheOK" data-name="flècheOK" width="298.64" height="287.45" patternUnits="userSpaceOnUse" viewBox="0 0 298.64 287.45"><rect width="298.64" height="287.45" style="fill:none"/><path d="M214.46,434.3l-68.81-.7a3,3,0,0,1-3-3l0.09-9a3,3,0,0,1,3-3l68.73,0.7a64.23,64.23,0,0,0-.08-128.46l-68.65.7a3,3,0,0,1-3-3l-0.09-9a3,3,0,0,1,3-3l68.73-.7A79.23,79.23,0,1,1,214.46,434.3Z" style="fill:#f6ebff"/><path d="M358.29,434.3a79.23,79.23,0,1,1-.06-158.46L407,276.22l-0.12,15-48.68-.39a64.23,64.23,0,0,0,.06,128.46l48.62-.39,0.12,15Z" style="fill:#f6ebff"/><path d="M59.65,434.3a79.23,79.23,0,1,1-.06-158.46l48.74,0.39-0.12,15-48.68-.39a64.23,64.23,0,0,0,.06,128.46l48.62-.39,0.12,15Z" style="fill:#f6ebff"/><path d="M103.8,311l43-24.38a3,3,0,0,0,0-5.2l-42.61-25.06a3,3,0,0,0-4.52,2.56l-0.39,49.44A3,3,0,0,0,103.8,311Z" style="fill:#f6ebff"/><path d="M363.78,362.43l-68.81-.7a3,3,0,0,1-3-3l0.09-9a3,3,0,0,1,3-3l68.73,0.7A64.23,64.23,0,0,0,363.78,219l-68.65.7a3,3,0,0,1-3-3l-0.09-9a3,3,0,0,1,3-3l68.73-.7A79.23,79.23,0,1,1,363.78,362.43Z" style="fill:#f6ebff"/><path d="M65.13,362.43l-68.81-.7a3,3,0,0,1-3-3l0.09-9a3,3,0,0,1,3-3l68.73,0.7A64.23,64.23,0,0,0,65.13,219l-68.65.7a3,3,0,0,1-3-3l-0.09-9a3,3,0,0,1,3-3l68.73-.7A79.23,79.23,0,1,1,65.13,362.43Z" style="fill:#f6ebff"/><path d="M209,362.43A79.23,79.23,0,1,1,208.91,204l48.74,0.39-0.12,15L208.85,219a64.23,64.23,0,0,0,.06,128.46l48.62-.39,0.12,15Z" style="fill:#f6ebff"/><path d="M253.12,239.15l43-24.38a3,3,0,0,0,0-5.2l-42.61-25.06a3,3,0,0,0-4.52,2.56l-0.39,49.44A3,3,0,0,0,253.12,239.15Z" style="fill:#f6ebff"/><path d="M214.46,290.57l-68.81-.7a3,3,0,0,1-3-3l0.09-9a3,3,0,0,1,3-3l68.73,0.7a64.23,64.23,0,0,0-.08-128.46l-68.65.7a3,3,0,0,1-3-3l-0.09-9a3,3,0,0,1,3-3l68.73-.7A79.23,79.23,0,1,1,214.46,290.57Z" style="fill:#f6ebff"/><path d="M358.29,290.57a79.23,79.23,0,1,1-.06-158.46L407,132.5l-0.12,15-48.68-.39a64.23,64.23,0,0,0,.06,128.46l48.62-.39,0.12,15Z" style="fill:#f6ebff"/><path d="M59.65,290.57a79.23,79.23,0,1,1-.06-158.46l48.74,0.39-0.12,15-48.68-.39a64.23,64.23,0,0,0,.06,128.46l48.62-.39,0.12,15Z" style="fill:#f6ebff"/><path d="M102.29,254.55l46,26.09a2,2,0,0,1,0,3.46l-45.6,26.82a2,2,0,0,1-3-1.71L99.3,256.3A2,2,0,0,1,102.29,254.55Z" style="fill:#f6ebff"/><path d="M103.8,167.28l43-24.38a3,3,0,0,0,0-5.2l-42.61-25.06a3,3,0,0,0-4.52,2.56l-0.39,49.44A3,3,0,0,0,103.8,167.28Z" style="fill:#f6ebff"/><path d="M363.78,218.71L295,218a3,3,0,0,1-3-3l0.09-9a3,3,0,0,1,3-3l68.73,0.7a64.23,64.23,0,0,0-.08-128.46l-68.65.7a3,3,0,0,1-3-3L292,64a3,3,0,0,1,3-3l68.73-.7A79.23,79.23,0,1,1,363.78,218.71Z" style="fill:#f6ebff"/><path d="M65.13,218.71L-3.67,218a3,3,0,0,1-3-3l0.09-9a3,3,0,0,1,3-3l68.73,0.7a64.23,64.23,0,0,0-.08-128.46l-68.65.7a3,3,0,0,1-3-3l-0.09-9a3,3,0,0,1,3-3l68.73-.7A79.23,79.23,0,1,1,65.13,218.71Z" style="fill:#f6ebff"/><path d="M209,218.71a79.23,79.23,0,1,1-.06-158.46l48.74,0.39-0.12,15-48.68-.39a64.23,64.23,0,0,0,.06,128.46l48.62-.39,0.12,15Z" style="fill:#f6ebff"/><path d="M251.61,182.68l46,26.09a2,2,0,0,1,0,3.46L252.06,239a2,2,0,0,1-3-1.71l-0.42-52.9A2,2,0,0,1,251.61,182.68Z" style="fill:#f6ebff"/><path d="M253.12,95.42l43-24.38a3,3,0,0,0,0-5.2L253.55,40.79A3,3,0,0,0,249,43.35l-0.39,49.44A3,3,0,0,0,253.12,95.42Z" style="fill:#f6ebff"/><path d="M214.46,146.85l-68.81-.7a3,3,0,0,1-3-3l0.09-9a3,3,0,0,1,3-3l68.73,0.7a64.23,64.23,0,0,0-.08-128.46l-68.65.7a3,3,0,0,1-3-3l-0.09-9a3,3,0,0,1,3-3l68.73-.7A79.23,79.23,0,1,1,214.46,146.85Z" style="fill:#f6ebff"/><path d="M358.29,146.85a79.23,79.23,0,1,1-.06-158.46L407-11.22l-0.12,15-48.68-.39a64.23,64.23,0,0,0,.06,128.46l48.62-.39,0.12,15Z" style="fill:#f6ebff"/><path d="M59.65,146.85a79.23,79.23,0,1,1-.06-158.46l48.74,0.39-0.12,15L59.53,3.39a64.23,64.23,0,0,0,.06,128.46l48.62-.39,0.12,15Z" style="fill:#f6ebff"/><path d="M102.29,110.82l46,26.09a2,2,0,0,1,0,3.46l-45.6,26.82a2,2,0,0,1-3-1.71l-0.42-52.9A2,2,0,0,1,102.29,110.82Z" style="fill:#f6ebff"/><path d="M103.8,23.56l43-24.38a3,3,0,0,0,0-5.2L104.23-31.07a3,3,0,0,0-4.52,2.56L99.32,20.93A3,3,0,0,0,103.8,23.56Z" style="fill:#f6ebff"/><path d="M363.78,75L295,74.28a3,3,0,0,1-3-3l0.09-9a3,3,0,0,1,3-3L363.85,60A64.29,64.29,0,0,0,428-4.25a64.3,64.3,0,0,0-64.23-64.23l-68.65.7a3,3,0,0,1-3-3l-0.09-9a3,3,0,0,1,3-3l68.73-.7A79.34,79.34,0,0,1,443-4.25,79.32,79.32,0,0,1,363.78,75Z" style="fill:#f6ebff"/><path d="M65.13,75l-68.81-.7a3,3,0,0,1-3-3l0.09-9a3,3,0,0,1,3-3L65.21,60A64.29,64.29,0,0,0,129.36-4.25,64.3,64.3,0,0,0,65.13-68.48l-68.65.7a3,3,0,0,1-3-3l-0.09-9a3,3,0,0,1,3-3l68.73-.7A79.34,79.34,0,0,1,144.36-4.25,79.32,79.32,0,0,1,65.13,75Z" style="fill:#f6ebff"/><path d="M209,75A79.33,79.33,0,0,1,129.68-4.24a79.32,79.32,0,0,1,79.23-79.23l48.74,0.39-0.12,15-48.68-.39A64.29,64.29,0,0,0,144.68-4.24,64.3,64.3,0,0,0,208.91,60l48.62-.39,0.12,15Z" style="fill:#f6ebff"/><path d="M251.61,39l46,26.09a2,2,0,0,1,0,3.46l-45.6,26.82a2,2,0,0,1-3-1.71l-0.42-52.9A2,2,0,0,1,251.61,39Z" style="fill:#f6ebff"/><path d="M214.46,3.12l-68.81-.7a3,3,0,0,1-3-3l0.09-9a3,3,0,0,1,3-3l68.73,0.7a64.29,64.29,0,0,0,64.15-64.23,64.3,64.3,0,0,0-64.23-64.23l-68.65.7a3,3,0,0,1-3-3l-0.09-9a3,3,0,0,1,3-3l68.73-.7a79.34,79.34,0,0,1,79.31,79.23A79.32,79.32,0,0,1,214.46,3.12Z" style="fill:#f6ebff"/><path d="M358.29,3.12A79.33,79.33,0,0,1,279-76.11a79.32,79.32,0,0,1,79.23-79.23L407-154.95l-0.12,15-48.68-.39A64.29,64.29,0,0,0,294-76.11a64.3,64.3,0,0,0,64.23,64.23l48.62-.39,0.12,15Z" style="fill:#f6ebff"/><path d="M59.65,3.12A79.33,79.33,0,0,1-19.64-76.11a79.32,79.32,0,0,1,79.23-79.23l48.74,0.39-0.12,15-48.68-.39A64.29,64.29,0,0,0-4.64-76.11,64.3,64.3,0,0,0,59.59-11.88l48.62-.39,0.12,15Z" style="fill:#f6ebff"/><path d="M102.29-32.9l46,26.09a2,2,0,0,1,0,3.46l-45.6,26.82a2,2,0,0,1-3-1.71L99.3-31.15A2,2,0,0,1,102.29-32.9Z" style="fill:#f6ebff"/></pattern></defs><title>pattern</title><rect width="1500" height="600" style="fill:url(#flècheOK)"/></svg>